<svg xmlns="http://www.w3.org/2000/svg" width="120" height="116" viewBox="0 0 120 116">
  <g fill="none" fill-rule="evenodd" transform="translate(0 -2)">
    <polygon points="0 0 120 0 120 120 0 120"/>
    <path fill="#FFF" fill-rule="nonzero" d="M118.517223,23.9929101 C116.91656,14.1281018 106.352182,4.63889018 96.5232439,3.53800348 C76.4889954,1.48733217 43.675397,1.48733217 23.6411486,3.53800348 C13.8165366,4.63889018 3.25648467,14.132419 1.65149521,23.9929101 C-0.550498405,38.8397704 -0.550498405,55.7588879 1.65149521,70.6057482 C3.25648467,80.4705565 13.8165366,89.9554509 23.6454747,91.0606548 C27.1236729,91.4103483 30.5975449,91.595988 34.0757431,91.8420685 L34.0757431,113.769141 C34.0757431,115.513291 35.1313157,117.002726 36.7449574,117.671893 C37.2813959,117.89207 37.8437911,118 38.4018602,118 C39.5266507,118 40.6341367,117.645989 41.460425,116.821404 L67.2181264,92.1097351 C76.990825,91.9197782 86.7591975,91.4448859 96.5232439,90.4691981 C106.347856,89.3683114 116.91656,80.4705565 118.517223,70.6057482 C120.494259,57.3519358 120.494259,37.2467226 118.517223,23.9929101 Z"/>
  </g>
</svg>
