<svg xmlns="http://www.w3.org/2000/svg" width="107" height="120" viewBox="0 0 107 120">
  <g fill="none" fill-rule="evenodd" transform="translate(-7)">
    <rect width="120" height="120"/>
    <path fill="#FFF" fill-rule="nonzero" d="M100.835102,0 C107.698122,0 113.285714,5.52 113.285714,12.36 L113.285714,120 L100.227755,108.6 L92.8788571,101.88 L85.1048162,94.74 L88.3237552,105.84 L19.4506122,105.84 C12.5875919,105.84 7,100.32 7,93.48 L7,12.36 C7,5.52 12.5875919,0 19.4506122,0 L100.835102,0 Z M77.3915101,78.36 C90.8138776,77.94 95.9763266,69.24 95.9763266,69.24 C95.9763266,49.92 87.2305305,34.26 87.2305305,34.26 C78.4847347,27.78 70.1640815,27.96 70.1640815,27.96 L69.3137958,28.92 C79.6386938,32.04 84.4367347,36.54 84.4367347,36.54 C78.1203266,33.12 71.9253877,31.44 66.1555919,30.78 C61.7826938,30.3 57.592,30.42 53.8871838,30.9 C53.5227757,30.9 53.2191019,30.96 52.8546938,31.02 C50.7289795,31.2 45.5665305,31.98 39.0679184,34.8 C36.8207347,35.82 35.4845714,36.54 35.4845714,36.54 C35.4845714,36.54 40.525551,31.8 51.4577958,28.68 L50.850449,27.96 C50.850449,27.96 42.5297958,27.78 33.784,34.26 C33.784,34.26 25.0382041,49.92 25.0382041,69.24 C25.0382041,69.24 30.1399184,77.94 43.5622857,78.36 C43.5622857,78.36 45.8094695,75.66 47.6315101,73.38 C39.9182041,71.1 37.0029388,66.3 37.0029388,66.3 C37.0029388,66.3 37.6102857,66.72 38.7035102,67.32 C38.7642449,67.38 38.8249796,67.44 38.946449,67.5 C39.1286531,67.62 39.3108571,67.68 39.4930612,67.8 C41.0114286,68.64 42.5297958,69.3 43.9266938,69.84 C46.4168162,70.8 49.3928162,71.76 52.8546938,72.42 C57.4097958,73.26 62.754449,73.56 68.5849795,72.48 C71.4395101,72 74.3547757,71.16 77.3915101,69.9 C79.5172243,69.12 81.8858776,67.98 84.376,66.36 C84.376,66.36 81.3392653,71.28 73.3830205,73.5 C75.2050614,75.78 77.3915101,78.36 77.3915101,78.36 Z M50.8604066,51.4285714 C54.2950038,51.4285714 57.066784,54.5173745 57.0065279,58.2857143 C57.0065279,62.0540541 54.2950038,65.1428571 50.8604066,65.1428571 C47.4860659,65.1428571 44.7142857,62.0540541 44.7142857,58.2857143 C44.7142857,54.5173745 47.4258098,51.4285714 50.8604066,51.4285714 Z M72.8538791,51.4285714 C76.2884759,51.4285714 79,54.5173745 79,58.2857143 C79,62.0540541 76.2884759,65.1428571 72.8538791,65.1428571 C69.4795381,65.1428571 66.7077578,62.0540541 66.7077578,58.2857143 C66.7077578,54.5173745 69.4192819,51.4285714 72.8538791,51.4285714 Z"/>
  </g>
</svg>
