<svg xmlns="http://www.w3.org/2000/svg" width="120" height="120" viewBox="0 0 120 120">
  <path fill="#FFF" fill-rule="evenodd" d="M64.096,120 L6.62325,120 C2.96435,120 0.000175,117.033975 0.000175,113.3765 L0.000175,6.623 C0.000175,2.9646 2.964825,-2.5e-05 6.62325,-2.5e-05 L113.3775,-2.5e-05 C117.035,-2.5e-05 120.000125,2.9646 120.000125,6.623 L120.000125,113.3765 C120.000125,117.03445 117.03455,120 113.3775,120 L82.79825,120 L82.79825,73.5295 L98.3963,73.5295 L100.731885,55.419075 L82.79826,55.419075 L82.79826,43.856725 C82.79826,38.61335 84.2542775,35.04015 91.773235,35.04015 L101.363285,35.0359575 L101.363285,18.8378575 C99.7047225,18.61715 94.01196,18.124055 87.388885,18.124055 C73.562085,18.124055 64.095885,26.563955 64.095885,42.063155 L64.095885,55.419105 L48.45781,55.419105 L48.45781,73.52953 L64.095885,73.52953 L64.095885,120.00003 L64.096,120 Z"/>
</svg>
