<svg xmlns="http://www.w3.org/2000/svg" width="120" height="120" viewBox="0 0 120 120">
  <path fill="#FFF" d="M97.03125,40.546875 C97.03125,36.3802083 95.546875,32.8255208 92.578125,29.8828125 C89.609375,26.9401042 86.0416667,25.46875 81.875,25.46875 C77.7083333,25.46875 74.1536458,26.953125 71.2109375,29.921875 C68.2682292,32.890625 66.796875,36.4322917 66.796875,40.546875 C66.796875,44.7135417 68.2682292,48.2682292 71.2109375,51.2109375 C74.1536458,54.1536458 77.7083333,55.625 81.875,55.625 C86.0416667,55.625 89.609375,54.1536458 92.578125,51.2109375 C95.546875,48.2682292 97.03125,44.7135417 97.03125,40.546875 Z M49.375,86.484375 C49.375,90.8072917 47.8645833,94.4661458 44.84375,97.4609375 C41.8229167,100.455729 38.1770833,101.953125 33.90625,101.953125 C30.9895833,101.953125 28.3072917,101.197917 25.859375,99.6875 C23.4114583,98.1770833 21.5364583,96.171875 20.234375,93.671875 C22.9427083,94.7135417 25.4947917,95.7552083 27.890625,96.796875 C31.015625,98.046875 34.140625,98.0078125 37.265625,96.6796875 C40.390625,95.3515625 42.6041667,93.0989583 43.90625,89.921875 C45.15625,86.796875 45.1171875,83.671875 43.7890625,80.546875 C42.4609375,77.421875 40.2083333,75.234375 37.03125,73.984375 L30.625,71.40625 C31.7708333,71.1458333 32.8645833,71.015625 33.90625,71.015625 C38.1770833,71.015625 41.8229167,72.5130208 44.84375,75.5078125 C47.8645833,78.5026042 49.375,82.1614583 49.375,86.484375 Z M120,22.5 L120,97.5 C120,103.697917 117.799479,108.997396 113.398438,113.398438 C108.997396,117.799479 103.697917,120 97.5,120 L22.5,120 C16.3020833,120 11.0026042,117.799479 6.6015625,113.398438 C2.20052083,108.997396 0,103.697917 0,97.5 L0,85.546875 L13.4375,90.9375 C14.4791667,95.7291667 16.9140625,99.6875 20.7421875,102.8125 C24.5703125,105.9375 28.9583333,107.5 33.90625,107.5 C39.3229167,107.5 44.0364583,105.677083 48.046875,102.03125 C52.0572917,98.3854167 54.3229167,93.8802083 54.84375,88.515625 L81.796875,68.828125 C89.609375,68.828125 96.2630208,66.0807292 101.757812,60.5859375 C107.252604,55.0911458 110,48.4635417 110,40.703125 C110,32.890625 107.252604,26.2369792 101.757812,20.7421875 C96.2630208,15.2473958 89.609375,12.5 81.796875,12.5 C74.0885417,12.5 67.5,15.2213542 62.03125,20.6640625 C56.5625,26.1067708 53.7760417,32.6822917 53.671875,40.390625 L36.09375,65.546875 C35.625,65.4947917 34.8958333,65.46875 33.90625,65.46875 C30,65.46875 26.4322917,66.4322917 23.203125,68.359375 L0,59.0625 L0,22.5 C0,16.3020833 2.20052083,11.0026042 6.6015625,6.6015625 C11.0026042,2.20052083 16.3020833,0 22.5,0 L97.5,0 C103.697917,0 108.997396,2.20052083 113.398438,6.6015625 C117.799479,11.0026042 120,16.3020833 120,22.5 Z M100.703125,40.703125 C100.703125,45.9114583 98.8541667,50.3515625 95.15625,54.0234375 C91.4583333,57.6953125 87.0052083,59.53125 81.796875,59.53125 C76.5885417,59.53125 72.1484375,57.6953125 68.4765625,54.0234375 C64.8046875,50.3515625 62.96875,45.9114583 62.96875,40.703125 C62.96875,35.4947917 64.8046875,31.0416667 68.4765625,27.34375 C72.1484375,23.6458333 76.5885417,21.796875 81.796875,21.796875 C87.0572917,21.796875 91.5234375,23.6328125 95.1953125,27.3046875 C98.8671875,30.9765625 100.703125,35.4427083 100.703125,40.703125 Z"/>
</svg>
