<svg xmlns="http://www.w3.org/2000/svg" width="120" height="100" viewBox="0 0 120 100">
  <g fill="none" fill-rule="evenodd" transform="translate(0 -10)">
    <rect width="120" height="120"/>
    <path fill="#FFF" d="M119.99986,21.838225 C115.590635,23.8461725 110.84331,25.20405 105.86356,25.810775 C110.94896,22.690525 114.85106,17.742875 116.68941,11.84905 C111.92801,14.738175 106.66651,16.840025 101.04581,17.966775 C96.566135,13.062475 90.16361,10 83.07786,10 C69.49096,10 58.467885,21.303725 58.467885,35.24375 C58.467885,37.222805 58.67919,39.144075 59.1018,40.993125 C38.64045,39.9385925 20.50355,29.898875 8.35355,14.608125 C6.23346,18.34955 5.021975,22.690475 5.021975,27.313075 C5.021975,36.06715 9.367825,43.79555 15.9746,48.324275 C11.945725,48.2014875 8.142225,47.0530575 4.8177,45.175125 L4.8177,45.4857075 C4.8177,57.7211825 13.3051,67.9270325 24.5747,70.2383325 C22.510955,70.830605 20.334525,71.12674 18.08765,71.12674 C16.5028625,71.12674 14.9533,70.9750625 13.453025,70.678925 C16.587375,80.7042 25.673475,88.006475 36.450025,88.2015 C28.026,94.9765 17.404425,99.014075 5.874275,99.014075 C3.88801,99.014075 1.922875,98.89851 0,98.66738 C10.896275,105.81798 23.842225,109.99998 37.739,109.99998 C83.02875,109.99998 107.7865,71.53848 107.7865,38.17623 C107.7865,37.07836 107.76537,35.98049 107.723107,34.90428 C112.533807,31.34343 116.710607,26.90138 119.999907,21.83818"/>
  </g>
</svg>
